<?xml version="1.0" standalone="no"?>
<!DOCTYPE svg PUBLIC "-//W3C//DTD SVG 20010904//EN"
 "http://www.w3.org/TR/2001/REC-SVG-20010904/DTD/svg10.dtd">
<svg version="1.0" xmlns="http://www.w3.org/2000/svg"
 width="1080.000000pt" height="1080.000000pt" viewBox="0 0 1080.000000 1080.000000"
 preserveAspectRatio="xMidYMid meet">
<metadata>
Created by potrace 1.14, written by Peter Selinger 2001-2017
</metadata>
<g transform="translate(0.000000,1080.000000) scale(0.100000,-0.100000)"
fill="#000000" stroke="none">
<path d="M4795 10091 c-70 -25 -127 -55 -148 -79 -15 -16 -101 -327 -133 -479
-2 -12 -24 -102 -48 -200 -72 -290 -71 -286 -58 -366 12 -71 12 -73 -24 -172
-103 -284 -225 -646 -319 -940 -26 -82 -63 -198 -82 -258 l-34 -107 -47 32
c-26 18 -143 103 -260 191 -274 203 -409 294 -475 319 -80 31 -204 33 -293 4
-75 -24 -169 -77 -219 -124 -136 -126 -214 -309 -250 -592 -25 -191 -25 -456
0 -685 9 -83 27 -228 30 -245 4 -22 18 -111 20 -125 4 -35 20 -121 36 -190 10
-45 20 -92 23 -105 17 -77 26 -112 45 -180 31 -108 118 -373 151 -460 16 -41
75 -196 131 -345 157 -419 431 -1124 494 -1270 7 -16 22 -52 33 -80 11 -27 50
-124 87 -215 37 -91 73 -178 79 -195 23 -52 36 -86 107 -260 39 -93 76 -183
84 -200 8 -16 32 -75 54 -130 38 -96 114 -275 161 -378 27 -61 26 -62 105 133
61 152 79 194 126 298 16 35 29 65 29 68 0 16 152 307 218 417 153 257 297
408 481 507 l66 35 16 70 c9 39 28 133 42 210 14 77 60 320 103 540 42 220 78
411 80 425 3 14 12 59 20 100 9 41 18 86 20 100 2 14 9 48 15 76 5 28 12 64
14 80 3 16 12 61 20 99 11 56 66 336 90 465 3 14 7 36 10 50 7 35 14 70 21
105 2 17 16 89 31 160 14 72 27 139 29 150 2 11 6 29 8 40 68 328 97 500 89
514 -8 12 -21 15 -49 12 -97 -10 -370 4 -489 26 -16 2 -43 6 -60 8 -97 11
-271 75 -413 151 -128 69 -339 201 -370 231 -6 6 -21 14 -31 18 -22 7 -23 4
40 210 82 266 151 467 322 935 121 334 100 296 234 417 32 30 68 90 163 278
68 132 166 323 218 425 92 179 94 186 89 237 -10 99 -83 195 -183 242 -56 27
-177 28 -249 2z"/>
<path d="M7817 8994 c-1 -1 -42 -5 -92 -9 -49 -4 -92 -8 -95 -10 -3 -2 -26 -6
-50 -10 -126 -18 -302 -78 -445 -152 -168 -86 -391 -224 -1150 -708 -249 -159
-343 -208 -485 -255 -69 -24 -105 -31 -135 -27 -76 11 -337 138 -521 253 -104
65 -129 72 -140 37 -9 -28 -57 -155 -119 -312 -30 -79 -53 -151 -50 -161 3 -9
15 -22 28 -28 12 -6 45 -25 72 -42 84 -51 343 -175 479 -229 130 -52 332 -116
426 -136 8 -2 38 -9 65 -15 63 -15 146 -29 210 -36 28 -3 53 -8 56 -10 12 -7
226 -18 349 -18 118 0 328 12 340 19 3 1 28 5 55 9 128 15 358 67 404 90 24
13 24 14 -30 29 -30 9 -117 32 -194 52 -473 122 -699 188 -719 206 -6 6 -5 9
3 9 7 0 36 15 64 33 29 19 108 68 177 110 69 42 233 146 365 231 795 513 983
589 1314 529 365 -66 625 -294 749 -658 34 -100 77 -323 73 -383 0 -13 2 -21
7 -19 4 3 8 -32 8 -76 4 -201 4 -387 0 -447 -8 -120 -17 -241 -21 -259 -2 -10
-6 -42 -9 -72 -3 -30 -8 -63 -10 -74 -2 -11 -7 -42 -10 -70 -4 -27 -11 -75
-16 -105 -5 -30 -12 -73 -16 -95 -36 -250 -145 -652 -276 -1020 -79 -223 -335
-878 -402 -1028 -8 -18 -40 -95 -71 -172 -31 -77 -63 -153 -70 -170 -7 -16
-62 -144 -121 -284 -60 -140 -119 -270 -132 -290 -13 -19 -40 -71 -59 -116
-138 -313 -309 -678 -450 -958 -197 -390 -391 -736 -409 -728 -5 2 -21 47 -35
100 -114 414 -265 822 -400 1076 -281 530 -567 779 -908 789 -353 11 -676
-267 -956 -822 -123 -244 -185 -405 -320 -821 -40 -124 -100 -268 -120 -289
-13 -15 -25 1 -130 182 -182 312 -615 1206 -821 1696 -25 58 -49 114 -54 125
-45 97 -237 558 -380 915 -67 168 -131 324 -141 347 -11 24 -19 46 -19 49 0 3
-6 20 -14 37 -8 18 -28 70 -46 117 -18 47 -38 99 -45 115 -53 126 -227 649
-250 754 -2 9 -11 41 -19 71 -25 93 -74 339 -90 455 -9 61 -18 124 -21 141 -2
17 -7 57 -10 90 -3 32 -8 73 -10 89 -19 149 -25 474 -12 649 5 55 9 102 11
105 2 3 6 29 10 57 75 633 450 1009 1010 1012 178 1 313 -28 461 -100 74 -36
69 -32 248 -151 82 -54 152 -96 155 -92 12 12 190 510 185 518 -5 9 -163 113
-248 163 -130 78 -297 141 -450 170 -128 25 -498 24 -595 -1 -8 -2 -33 -6 -55
-10 -75 -11 -238 -55 -314 -86 -327 -130 -576 -360 -737 -679 -117 -235 -199
-522 -220 -775 -3 -33 -7 -66 -10 -74 -5 -14 -5 -549 0 -616 14 -195 18 -240
21 -254 1 -9 6 -43 9 -76 4 -33 8 -71 11 -85 2 -14 7 -45 10 -70 7 -58 15
-105 61 -339 20 -99 95 -365 145 -511 33 -96 61 -179 63 -185 2 -5 6 -17 9
-25 3 -8 25 -67 48 -130 105 -289 393 -1035 429 -1115 5 -11 50 -119 100 -240
50 -121 97 -233 104 -250 8 -16 60 -136 116 -265 89 -205 141 -320 248 -550
14 -30 43 -93 64 -140 139 -302 427 -876 544 -1087 125 -224 317 -516 397
-604 95 -105 253 -150 416 -119 119 22 232 106 284 211 25 50 58 163 72 249
30 181 219 773 305 955 5 11 21 49 36 85 90 221 245 480 352 587 114 115 189
111 310 -16 234 -245 562 -1039 691 -1671 6 -30 13 -64 15 -75 19 -93 85 -198
157 -251 74 -54 148 -77 256 -80 182 -6 283 49 401 216 26 36 49 67 52 70 8 7
140 213 192 300 176 293 503 951 798 1605 37 83 79 175 93 205 13 30 59 136
102 235 42 99 80 189 85 200 133 295 491 1212 674 1722 111 311 203 647 241
883 3 19 8 46 10 60 3 14 7 41 9 60 8 64 17 135 21 160 2 14 7 54 10 90 3 36
8 81 10 100 22 182 22 738 0 860 -1 8 -5 33 -9 55 -3 22 -8 56 -11 75 -3 19
-13 73 -24 120 -95 427 -216 681 -424 894 -216 221 -469 351 -772 396 -67 10
-320 21 -328 14z"/>
</g>
</svg>
